<svg xmlns="http://www.w3.org/2000/svg" xmlns:xlink="http://www.w3.org/1999/xlink" width="500" zoomAndPan="magnify" viewBox="0 0 375 374.999991" height="500" preserveAspectRatio="xMidYMid meet" version="1.0"><defs><clipPath id="id1"><path d="M 165.507812 56.195312 L 367.175781 56.195312 L 367.175781 340.375 L 165.507812 340.375 Z M 165.507812 56.195312 " clip-rule="nonzero"/></clipPath></defs><path fill="rgb(65.098572%, 65.098572%, 65.098572%)" d="M 67.726562 256.128906 L 56.761719 289.445312 L 49.460938 289.929688 L 44.964844 303.589844 L 36.832031 304.132812 L 31.921875 319.042969 L 38.144531 324.304688 L 31.742188 343.761719 L 34.75 352.070312 L 20.910156 370.480469 C 20.789062 370.640625 20.59375 370.738281 20.394531 370.738281 C 20.191406 370.707031 12.734375 368.253906 12.734375 368.253906 C 12.472656 368.167969 12.292969 367.925781 12.292969 367.648438 L 12.089844 344.617188 L 19.445312 339.71875 L 25.578125 321.085938 L 19.121094 315.625 L 30.089844 282.3125 L 38.527344 281.746094 L 42.441406 269.855469 L 35.984375 264.394531 L 40.71875 250.019531 L 49.15625 249.457031 L 60.285156 215.644531 L 72.582031 219.6875 L 62.140625 251.40625 Z M 89.628906 211.378906 L 52.742188 199.25 C 51.855469 198.960938 51.007812 198.605469 50.160156 198.253906 L 9.597656 321.476562 C 8.5625 324.613281 8.054688 327.894531 8.082031 331.195312 L 8.402344 367.679688 C 8.417969 369.621094 9.671875 371.339844 11.519531 371.949219 L 18.976562 374.398438 C 20.824219 375.003906 22.851562 374.367188 24.019531 372.816406 L 45.949219 343.644531 C 47.933594 341.007812 49.46875 338.0625 50.503906 334.929688 L 91.042969 211.765625 C 90.570312 211.632812 90.097656 211.535156 89.628906 211.378906 " fill-opacity="1" fill-rule="nonzero"/><path fill="rgb(65.098572%, 65.098572%, 65.098572%)" d="M 107.492188 168.964844 C 103.390625 181.429688 89.953125 188.210938 77.480469 184.109375 C 65.007812 180.007812 58.226562 166.582031 62.328125 154.113281 C 66.429688 141.652344 79.867188 134.871094 92.339844 138.972656 C 104.808594 143.074219 111.59375 156.5 107.492188 168.964844 Z M 116.574219 126.511719 L 79.84375 114.433594 C 75.144531 112.890625 72.585938 107.824219 74.132812 103.125 L 77.242188 93.671875 C 78.726562 89.164062 83.453125 86.667969 87.984375 87.839844 C 87.953125 87.765625 112.191406 95.738281 112.191406 95.738281 L 125.679688 100.171875 C 130.382812 101.71875 132.9375 106.777344 131.390625 111.476562 L 131.125 112.289062 C 137.996094 116.308594 145.726562 118.722656 153.789062 119.257812 L 155.203125 108.21875 C 156.394531 98.929688 150.824219 90.105469 141.925781 87.179688 L 100.789062 73.652344 L 85.617188 68.664062 L 83.203125 67.871094 C 74.304688 64.945312 64.582031 68.742188 60.019531 76.917969 L 54.523438 86.78125 C 46.167969 101.765625 39.261719 117.511719 33.898438 133.808594 L 29.941406 145.824219 C 23.433594 165.597656 34.199219 186.902344 53.980469 193.40625 L 90.867188 205.535156 C 110.652344 212.039062 131.964844 201.285156 138.476562 181.511719 L 142.429688 169.496094 C 145.738281 159.445312 148.378906 149.195312 150.480469 138.835938 C 138.121094 137.679688 126.496094 133.359375 116.574219 126.511719 " fill-opacity="1" fill-rule="nonzero"/><path fill="rgb(65.098572%, 65.098572%, 65.098572%)" d="M 101.578125 167.023438 C 98.550781 176.222656 88.632812 181.230469 79.425781 178.203125 C 70.21875 175.175781 65.210938 165.261719 68.238281 156.058594 C 71.269531 146.855469 81.1875 141.851562 90.394531 144.878906 C 99.601562 147.90625 104.609375 157.820312 101.578125 167.023438 " fill-opacity="1" fill-rule="nonzero"/><g clip-path="url(#id1)"><path fill="rgb(65.098572%, 65.098572%, 65.098572%)" d="M 350.261719 285.121094 C 350.089844 291.3125 346.015625 296.757812 340.121094 298.664062 L 265.722656 322.761719 C 259.828125 324.667969 253.332031 322.648438 249.558594 317.734375 C 234.59375 298.222656 223.15625 276.46875 215.574219 253.078125 L 207.566406 228.375 C 199.980469 204.980469 196.480469 180.660156 197.152344 156.082031 C 197.324219 149.890625 201.402344 144.445312 207.292969 142.539062 L 281.691406 118.441406 C 287.589844 116.53125 294.082031 118.554688 297.855469 123.472656 C 312.824219 142.980469 324.257812 164.734375 331.84375 188.125 L 339.851562 212.828125 C 347.433594 236.21875 350.9375 260.542969 350.261719 285.121094 Z M 355.867188 207.644531 L 333.367188 138.242188 C 325.210938 113.089844 312.820312 89.515625 296.726562 68.535156 C 288.605469 57.953125 274.703125 53.628906 262.015625 57.742188 L 228.707031 68.527344 C 228.632812 74.589844 227.773438 80.511719 226.238281 86.226562 L 260.667969 75.074219 C 264.472656 73.84375 268.554688 75.925781 269.785156 79.726562 L 273.105469 89.960938 C 274.335938 93.761719 272.253906 97.839844 268.449219 99.074219 L 206.984375 118.980469 L 206.550781 119.410156 L 204.425781 119.410156 C 203.621094 119.402344 202.875 119.289062 202.167969 119.054688 C 201.496094 118.828125 200.828125 118.492188 200.25 118.085938 C 199.59375 117.609375 199.121094 117.132812 198.703125 116.589844 C 198.625 116.488281 198.554688 116.382812 198.484375 116.277344 C 198.097656 115.714844 197.761719 115.113281 197.539062 114.433594 L 195.972656 109.597656 L 194.132812 103.929688 C 193.097656 100.214844 195.171875 96.285156 198.875 95.085938 L 201.59375 94.207031 C 205.132812 88.339844 207.429688 81.851562 208.425781 75.097656 L 187.617188 81.835938 C 174.925781 85.945312 166.203125 97.597656 165.835938 110.925781 C 165.75 114.101562 165.734375 117.277344 165.777344 120.449219 L 165.816406 121.984375 C 165.828125 122.5625 165.867188 123.140625 165.878906 123.722656 C 165.984375 127.347656 166.167969 130.980469 166.445312 134.613281 C 167.824219 153.027344 171.347656 171.242188 177.058594 188.863281 L 199.558594 258.265625 C 207.714844 283.417969 220.105469 306.988281 236.203125 327.972656 C 244.320312 338.554688 258.222656 342.875 270.910156 338.765625 L 345.308594 314.671875 C 358 310.5625 366.722656 298.910156 367.089844 285.582031 C 367.816406 259.152344 364.019531 232.796875 355.867188 207.644531 " fill-opacity="1" fill-rule="nonzero"/></g><path fill="rgb(65.098572%, 65.098572%, 65.098572%)" d="M 157.175781 0 C 120.453125 0 90.535156 29.398438 89.582031 65.875 L 101.550781 69.8125 C 101.523438 69.089844 101.4375 68.378906 101.4375 67.648438 C 101.4375 36.929688 126.441406 11.941406 157.175781 11.941406 C 187.910156 11.941406 212.910156 36.929688 212.910156 67.648438 C 212.910156 81.960938 207.4375 94.988281 198.527344 104.867188 L 201.238281 113.234375 C 201.683594 114.605469 202.964844 115.523438 204.425781 115.523438 L 204.941406 115.523438 C 217.238281 103.269531 224.859375 86.332031 224.859375 67.648438 C 224.859375 30.347656 194.496094 0 157.175781 0 Z M 157.175781 123.355469 C 138.355469 123.355469 121.71875 113.960938 111.621094 99.640625 L 94.910156 94.144531 C 105.25 118.3125 129.261719 135.296875 157.175781 135.296875 C 158.996094 135.296875 160.789062 135.167969 162.574219 135.023438 C 162.269531 131.050781 162.058594 127.074219 161.953125 123.113281 C 160.378906 123.246094 158.789062 123.355469 157.175781 123.355469 " fill-opacity="1" fill-rule="nonzero"/><path fill="rgb(65.098572%, 65.098572%, 65.098572%)" d="M 307.183594 274.308594 C 306.289062 273.121094 304.734375 272.628906 303.320312 273.085938 L 283.453125 279.523438 L 282.988281 279.671875 C 281.160156 280.265625 280.15625 282.230469 280.746094 284.058594 L 280.894531 284.511719 C 286.105469 283.394531 291.515625 285.246094 294.992188 289.363281 L 309.253906 284.746094 C 310.335938 284.394531 311.15625 283.570312 311.496094 282.488281 C 311.84375 281.398438 311.648438 280.253906 310.960938 279.34375 Z M 266.089844 156.515625 C 263.085938 148.90625 256.769531 144.191406 251.445312 145.917969 C 246.121094 147.640625 243.769531 155.164062 245.800781 163.085938 Z M 314.328125 283.378906 C 313.691406 285.394531 312.175781 286.917969 310.167969 287.570312 L 293.898438 292.839844 L 293.265625 291.964844 C 290.300781 287.890625 285.121094 286.179688 280.375 287.71875 L 278.960938 288.175781 L 277.921875 284.972656 C 276.828125 281.589844 278.6875 277.945312 282.070312 276.851562 L 296.390625 259.007812 C 296.808594 258.496094 297.523438 258.308594 298.136719 258.574219 L 303.929688 261.0625 C 304.683594 261.382812 305.03125 262.253906 304.707031 263.007812 C 304.386719 263.765625 303.511719 264.109375 302.757812 263.785156 L 298.003906 261.746094 L 287.253906 275.171875 L 302.40625 270.265625 C 305.027344 269.414062 307.902344 270.324219 309.558594 272.527344 L 313.335938 277.5625 C 314.605469 279.246094 314.96875 281.367188 314.328125 283.378906 Z M 286.402344 301.699219 C 283.214844 302.734375 279.792969 300.984375 278.757812 297.800781 C 277.726562 294.613281 279.472656 291.195312 282.664062 290.160156 C 285.851562 289.128906 289.273438 290.875 290.304688 294.0625 C 291.339844 297.25 289.589844 300.667969 286.402344 301.699219 Z M 339.402344 247.199219 C 338.582031 242.007812 333.28125 238.785156 328.277344 240.402344 L 241.125 268.628906 C 236.121094 270.25 233.722656 275.96875 236.105469 280.652344 C 241.820312 291.882812 248.542969 302.589844 256.273438 312.664062 C 257.871094 314.742188 260.632812 315.5625 263.125 314.757812 L 337.523438 290.664062 C 340.015625 289.855469 341.769531 287.574219 341.84375 284.957031 C 342.199219 272.265625 341.363281 259.648438 339.402344 247.199219 Z M 250.53125 143.09375 C 257.5 140.835938 265.632812 146.628906 269.089844 156.050781 C 270.890625 156.277344 272.492188 157.484375 273.089844 159.316406 L 275.492188 166.730469 C 277.300781 172.308594 274.230469 178.316406 268.648438 180.125 L 257.585938 183.707031 C 252.003906 185.515625 245.992188 182.445312 244.183594 176.867188 L 241.78125 169.457031 C 241.1875 167.625 241.78125 165.710938 243.097656 164.46875 C 240.371094 154.8125 243.5625 145.351562 250.53125 143.09375 Z M 219.113281 200.667969 L 306.230469 172.457031 C 311.234375 170.835938 313.632812 165.117188 311.246094 160.429688 C 305.546875 149.238281 298.839844 138.570312 291.132812 128.535156 C 289.539062 126.460938 286.777344 125.640625 284.289062 126.445312 L 209.886719 150.539062 C 207.398438 151.347656 205.640625 153.628906 205.566406 156.246094 C 205.214844 168.894531 206.046875 181.464844 207.992188 193.867188 C 208.808594 199.0625 214.109375 202.292969 219.113281 200.667969 Z M 257.644531 165.035156 C 260.128906 164.230469 262.796875 165.589844 263.605469 168.074219 C 264.136719 169.710938 263.710938 171.417969 262.660156 172.628906 L 263.464844 175.121094 C 263.703125 175.851562 263.300781 176.636719 262.574219 176.871094 L 260.601562 177.511719 C 259.867188 177.75 259.082031 177.347656 258.84375 176.617188 L 258.039062 174.125 C 256.476562 173.761719 255.132812 172.628906 254.601562 170.992188 C 253.796875 168.507812 255.15625 165.839844 257.644531 165.035156 Z M 247.007812 175.953125 C 248.3125 179.972656 252.648438 182.1875 256.671875 180.882812 L 267.734375 177.300781 C 271.757812 175.996094 273.96875 171.664062 272.667969 167.644531 L 270.261719 160.234375 C 269.949219 159.257812 268.898438 158.722656 267.925781 159.039062 L 245.800781 166.207031 C 244.824219 166.523438 244.289062 167.570312 244.605469 168.542969 Z M 275.867188 221.246094 C 278.355469 220.4375 281.023438 221.800781 281.828125 224.285156 C 282.359375 225.921875 281.933594 227.628906 280.882812 228.839844 L 281.691406 231.332031 C 281.925781 232.0625 281.527344 232.847656 280.792969 233.085938 L 278.824219 233.722656 C 278.089844 233.957031 277.304688 233.558594 277.070312 232.828125 L 276.261719 230.335938 C 274.699219 229.972656 273.355469 228.839844 272.824219 227.203125 C 272.019531 224.71875 273.378906 222.050781 275.867188 221.246094 Z M 262.910156 225.007812 L 265.316406 232.421875 C 266.617188 236.441406 270.953125 238.65625 274.976562 237.351562 L 286.039062 233.765625 C 290.0625 232.464844 292.277344 228.132812 290.972656 224.113281 L 288.570312 216.699219 C 288.253906 215.726562 287.207031 215.191406 286.234375 215.507812 L 265.648438 222.175781 L 264.105469 222.675781 C 263.132812 222.988281 262.597656 224.039062 262.910156 225.007812 Z M 247.664062 206.417969 C 254.519531 204.199219 262.492188 209.777344 266.042969 218.925781 L 285.316406 212.683594 C 287.851562 211.863281 290.574219 213.253906 291.394531 215.785156 L 293.796875 223.195312 C 295.605469 228.773438 292.539062 234.78125 286.953125 236.589844 L 275.890625 240.175781 C 270.3125 241.980469 264.296875 238.914062 262.492188 233.335938 L 260.085938 225.925781 C 259.265625 223.394531 260.660156 220.667969 263.191406 219.851562 C 260.1875 212.242188 253.902344 207.519531 248.578125 209.242188 C 242.933594 211.070312 240.5625 219.417969 243.296875 227.851562 C 243.550781 228.632812 243.125 229.46875 242.34375 229.722656 C 241.5625 229.972656 240.726562 229.546875 240.472656 228.769531 C 237.234375 218.777344 240.460938 208.75 247.664062 206.417969 Z M 327.441406 229.757812 C 331.898438 228.316406 334.324219 223.570312 332.980469 219.082031 C 332.617188 217.859375 332.238281 216.640625 331.84375 215.425781 L 323.835938 190.71875 C 323.40625 189.402344 322.960938 188.089844 322.503906 186.785156 C 320.972656 182.4375 316.203125 180.144531 311.816406 181.566406 L 219.933594 211.324219 C 215.546875 212.742188 213.03125 217.394531 214.339844 221.816406 C 214.734375 223.140625 215.144531 224.460938 215.570312 225.78125 L 223.582031 250.484375 C 223.976562 251.703125 224.382812 252.910156 224.804688 254.113281 C 226.351562 258.539062 231.101562 260.957031 235.558594 259.515625 L 327.441406 229.757812 " fill-opacity="1" fill-rule="nonzero"/></svg>