<svg xmlns="http://www.w3.org/2000/svg" xmlns:xlink="http://www.w3.org/1999/xlink" width="500" zoomAndPan="magnify" viewBox="0 0 375 374.999991" height="500" preserveAspectRatio="xMidYMid meet" version="1.0"><defs><clipPath id="id1"><path d="M 51.5625 0 L 323.8125 0 L 323.8125 375 L 51.5625 375 Z M 51.5625 0 " clip-rule="nonzero"/></clipPath></defs><g clip-path="url(#id1)"><path fill="rgb(65.098572%, 65.098572%, 65.098572%)" d="M 187.6875 43.101562 C 220.109375 43.101562 246.363281 69.347656 246.363281 101.722656 L 246.363281 160.429688 L 129.011719 160.429688 L 129.011719 101.722656 C 129.011719 69.347656 155.265625 43.101562 187.6875 43.101562 Z M 289.019531 160.847656 L 289.019531 101.289062 C 289.019531 45.402344 243.652344 0.09375 187.6875 0.09375 C 131.722656 0.09375 86.351562 45.402344 86.351562 101.289062 L 86.351562 160.847656 C 66.710938 163.535156 51.5625 180.3125 51.5625 200.667969 L 51.5625 334.648438 C 51.5625 356.867188 69.601562 374.882812 91.855469 374.882812 L 283.519531 374.882812 C 305.769531 374.882812 323.808594 356.867188 323.808594 334.648438 L 323.808594 200.667969 C 323.808594 180.3125 308.660156 163.535156 289.019531 160.847656 " fill-opacity="1" fill-rule="nonzero"/></g></svg>