<svg xmlns="http://www.w3.org/2000/svg" xmlns:xlink="http://www.w3.org/1999/xlink" width="500" zoomAndPan="magnify" viewBox="0 0 375 374.999991" height="500" preserveAspectRatio="xMidYMid meet" version="1.0"><path fill="rgb(39.608765%, 38.42926%, 38.819885%)" d="M 343.871094 160.535156 L 210.753906 145.101562 L 219.742188 256.015625 L 347.074219 253.265625 L 344.660156 164.207031 L 343.871094 160.535156 " fill-opacity="1" fill-rule="nonzero"/><path fill="rgb(39.608765%, 38.42926%, 38.819885%)" d="M 147.398438 244.144531 L 167.222656 353.761719 L 209.226562 353.761719 L 228.164062 246.972656 L 147.398438 244.144531 " fill-opacity="1" fill-rule="nonzero"/><path fill="rgb(39.608765%, 38.42926%, 38.819885%)" d="M 25.496094 160.535156 L 158.628906 145.101562 L 149.625 256.015625 L 22.3125 253.265625 L 24.703125 164.207031 L 25.496094 160.535156 " fill-opacity="1" fill-rule="nonzero"/><path fill="rgb(30.589294%, 29.40979%, 29.798889%)" d="M 187.5 343.4375 C 101.382812 343.4375 31.5625 273.617188 31.5625 187.5 C 31.5625 101.382812 101.382812 31.5625 187.5 31.5625 C 273.617188 31.5625 343.4375 101.382812 343.4375 187.5 C 343.4375 273.617188 273.617188 343.4375 187.5 343.4375 Z M 187.5 0.0390625 C 83.96875 0.0390625 0.0390625 83.96875 0.0390625 187.5 C 0.0390625 291.03125 83.96875 374.960938 187.5 374.960938 C 291.03125 374.960938 374.960938 291.03125 374.960938 187.5 C 374.960938 83.96875 291.03125 0.0390625 187.5 0.0390625 " fill-opacity="1" fill-rule="nonzero"/><path fill="rgb(30.589294%, 29.40979%, 29.798889%)" d="M 250.554688 200.578125 C 250.554688 235.402344 222.324219 263.628906 187.5 263.628906 C 152.675781 263.628906 124.445312 235.402344 124.445312 200.578125 C 124.445312 165.734375 152.675781 137.507812 187.5 137.507812 C 222.324219 137.507812 250.554688 165.734375 250.554688 200.578125 " fill-opacity="1" fill-rule="nonzero"/></svg>