<svg xmlns="http://www.w3.org/2000/svg" xmlns:xlink="http://www.w3.org/1999/xlink" width="500" zoomAndPan="magnify" viewBox="0 0 375 374.999991" height="500" preserveAspectRatio="xMidYMid meet" version="1.0"><defs><clipPath id="id1"><path d="M 52.03125 1 L 322.78125 1 L 322.78125 375 L 52.03125 375 Z M 52.03125 1 " clip-rule="nonzero"/></clipPath></defs><g clip-path="url(#id1)"><path fill="rgb(49.409485%, 85.099792%, 34.118652%)" d="M 285.355469 156.257812 L 285.355469 98.492188 C 285.355469 45.3125 242.511719 2.078125 189.300781 1.066406 C 134.382812 0.0078125 89.4375 45.78125 89.4375 100.414062 L 89.4375 127.480469 C 89.4375 130.753906 92.109375 133.414062 95.398438 133.414062 L 124.6875 133.414062 C 128 133.414062 130.671875 130.753906 130.671875 127.480469 L 130.671875 100.242188 C 130.671875 69.625 154.621094 43.566406 185.367188 42.507812 C 217.625 41.375 244.117188 67.066406 244.117188 98.910156 L 244.117188 156.175781 L 91.03125 156.175781 C 69.535156 156.175781 52.09375 173.527344 52.09375 194.9375 L 52.09375 336.265625 C 52.09375 357.648438 69.535156 374.996094 91.03125 374.996094 L 283.734375 374.996094 C 305.257812 374.996094 322.695312 357.648438 322.695312 336.265625 L 322.695312 194.9375 C 322.695312 174.070312 306.121094 157.109375 285.355469 156.257812 " fill-opacity="1" fill-rule="nonzero"/></g></svg>